<?xml version="1.0" encoding="utf-8"?>
<!-- Generator: Adobe Illustrator 23.0.4, SVG Export Plug-In . SVG Version: 6.00 Build 0)  -->
<svg version="1.1" id="Layer_1" xmlns="http://www.w3.org/2000/svg" xmlns:xlink="http://www.w3.org/1999/xlink" x="0px" y="0px"
	 viewBox="0 0 200 48.7" style="enable-background:new 0 0 200 48.7;" xml:space="preserve">
<style type="text/css">
	.st0{fill:#6FB9D9;}
	.st1{fill:#508CB4;}
	.st2{fill:#FFFFFF;}
</style>
<g>
	<g>
		<path class="st0" d="M12.8,0c3,29.4-12.7,46.9-12.7,46.9c6.9-5.9,19.5-9.4,26.1-0.8C33.2,29.5,25.7,10.8,12.8,0z"/>
		<path class="st1" d="M21.6,48.7c0,0,3.9-4.5,2.6-12.1c-6.9,8.7-23,10.7-24.1,11v1.1L21.6,48.7z"/>
	</g>
	<g>
		<path class="st2" d="M39.2,42.6h0.9v6.1h-0.9V42.6z"/>
		<path class="st2" d="M42,42.6h0.9l2.8,4.3h0v-4.3h0.9v6.1h-0.9l-2.8-4.3h0v4.3H42V42.6z"/>
		<path class="st2" d="M49.6,43.4h-1.7v-0.8h4.3v0.8h-1.7v5.3h-0.9V43.4z"/>
		<path class="st2" d="M53.6,42.6h3.9v0.9h-3v1.7H57V46h-2.5v1.8h3v0.9h-3.9V42.6z"/>
		<path class="st2" d="M59,42.6h2.4c0.5,0,0.9,0.1,1.2,0.4c0.4,0.3,0.6,0.7,0.6,1.3c0,0.8-0.4,1.4-1.2,1.7l1.4,2.7h-1.1l-1.3-2.6
			h-1.2v2.6H59V42.6z M59.9,45.3h1.4c0.3,0,0.6-0.1,0.8-0.3c0.2-0.2,0.3-0.4,0.3-0.7c0-0.3-0.1-0.5-0.3-0.7
			c-0.2-0.1-0.4-0.2-0.7-0.2h-1.4V45.3z"/>
		<path class="st2" d="M64.9,42.6h0.9l2.8,4.3h0v-4.3h0.9v6.1h-0.9l-2.8-4.3h0v4.3h-0.9V42.6z"/>
		<path class="st2" d="M74.6,47.3h-2.3l-0.5,1.4h-1l2.2-6.1h0.8l2.2,6.1h-1L74.6,47.3z M74.3,46.5l-0.9-2.7h0l-0.9,2.7H74.3z"/>
		<path class="st2" d="M77.9,43.4h-1.7v-0.8h4.3v0.8h-1.7v5.3h-0.9V43.4z"/>
		<path class="st2" d="M81.9,42.6h0.9v6.1h-0.9V42.6z"/>
		<path class="st2" d="M84.5,45.6c0-0.7,0-1.2,0.1-1.4c0-0.2,0.1-0.4,0.2-0.6c0.1-0.3,0.4-0.5,0.7-0.8c0.3-0.2,0.7-0.3,1.2-0.3
			c0.5,0,0.9,0.1,1.2,0.3c0.3,0.2,0.6,0.5,0.7,0.8c0.1,0.1,0.2,0.3,0.2,0.6c0,0.2,0.1,0.7,0.1,1.4c0,0.7,0,1.2-0.1,1.4
			c0,0.2-0.1,0.4-0.2,0.6c-0.1,0.3-0.4,0.5-0.7,0.7c-0.3,0.2-0.7,0.3-1.2,0.4c-0.5,0-0.9-0.1-1.2-0.4c-0.3-0.2-0.6-0.5-0.7-0.7
			c0-0.1-0.1-0.2-0.1-0.3c0-0.1-0.1-0.2-0.1-0.3C84.5,46.8,84.5,46.3,84.5,45.6z M85.4,45.6c0,0.6,0,1,0.1,1.2
			c0,0.2,0.1,0.4,0.2,0.5c0.1,0.1,0.2,0.2,0.4,0.3c0.2,0.1,0.3,0.1,0.6,0.1c0.2,0,0.4,0,0.6-0.1c0.2-0.1,0.3-0.2,0.4-0.3
			c0.1-0.1,0.2-0.3,0.2-0.5c0-0.2,0.1-0.6,0.1-1.2s0-1-0.1-1.2c0-0.2-0.1-0.4-0.2-0.5c-0.1-0.1-0.2-0.2-0.4-0.3
			c-0.2-0.1-0.4-0.1-0.6-0.1c-0.2,0-0.4,0-0.6,0.1c-0.2,0.1-0.3,0.2-0.4,0.3c-0.1,0.1-0.2,0.3-0.2,0.5C85.4,44.6,85.4,45,85.4,45.6z
			"/>
		<path class="st2" d="M90.5,42.6h0.9l2.8,4.3h0v-4.3h0.9v6.1h-0.9l-2.8-4.3h0v4.3h-0.9V42.6z"/>
		<path class="st2" d="M100.2,47.3h-2.3l-0.5,1.4h-1l2.2-6.1h0.8l2.2,6.1h-1L100.2,47.3z M100,46.5l-0.9-2.7h0l-0.9,2.7H100z"/>
		<path class="st2" d="M103,42.6h0.9v5.2h3v0.9H103V42.6z"/>
		<path class="st2" d="M110.9,42.6h2.2c0.2,0,0.5,0,0.7,0.1c0.2,0.1,0.4,0.2,0.7,0.4c0.2,0.1,0.3,0.3,0.5,0.6
			c0.1,0.2,0.2,0.5,0.2,0.9c0,0.5-0.2,0.9-0.5,1.2c-0.3,0.4-0.8,0.6-1.4,0.6h-1.4v2.4h-0.9V42.6z M111.9,45.4h1.4
			c0.3,0,0.6-0.1,0.8-0.3c0.2-0.2,0.2-0.4,0.2-0.7c0-0.2,0-0.4-0.1-0.5c-0.1-0.1-0.2-0.2-0.3-0.3c-0.2-0.1-0.4-0.2-0.7-0.2h-1.3
			V45.4z"/>
		<path class="st2" d="M116.7,42.6h2.4c0.5,0,0.9,0.1,1.2,0.4c0.4,0.3,0.6,0.7,0.6,1.3c0,0.8-0.4,1.4-1.2,1.7l1.4,2.7H120l-1.3-2.6
			h-1.2v2.6h-0.9V42.6z M117.6,45.3h1.4c0.3,0,0.6-0.1,0.8-0.3c0.2-0.2,0.3-0.4,0.3-0.7c0-0.3-0.1-0.5-0.3-0.7
			c-0.2-0.1-0.4-0.2-0.7-0.2h-1.4V45.3z"/>
		<path class="st2" d="M122.3,45.6c0-0.7,0-1.2,0.1-1.4c0-0.2,0.1-0.4,0.2-0.6c0.1-0.3,0.4-0.5,0.7-0.8c0.3-0.2,0.7-0.3,1.2-0.3
			c0.5,0,0.9,0.1,1.2,0.3c0.3,0.2,0.6,0.5,0.7,0.8c0.1,0.1,0.2,0.3,0.2,0.6c0,0.2,0.1,0.7,0.1,1.4c0,0.7,0,1.2-0.1,1.4
			c0,0.2-0.1,0.4-0.2,0.6c-0.1,0.3-0.4,0.5-0.7,0.7c-0.3,0.2-0.7,0.3-1.2,0.4c-0.5,0-0.9-0.1-1.2-0.4c-0.3-0.2-0.6-0.5-0.7-0.7
			c0-0.1-0.1-0.2-0.1-0.3c0-0.1-0.1-0.2-0.1-0.3C122.3,46.8,122.3,46.3,122.3,45.6z M123.2,45.6c0,0.6,0,1,0.1,1.2
			c0,0.2,0.1,0.4,0.2,0.5c0.1,0.1,0.2,0.2,0.4,0.3c0.2,0.1,0.3,0.1,0.6,0.1c0.2,0,0.4,0,0.6-0.1c0.2-0.1,0.3-0.2,0.4-0.3
			c0.1-0.1,0.2-0.3,0.2-0.5c0-0.2,0.1-0.6,0.1-1.2s0-1-0.1-1.2c0-0.2-0.1-0.4-0.2-0.5c-0.1-0.1-0.2-0.2-0.4-0.3
			c-0.2-0.1-0.4-0.1-0.6-0.1c-0.2,0-0.4,0-0.6,0.1c-0.2,0.1-0.3,0.2-0.4,0.3c-0.1,0.1-0.2,0.3-0.2,0.5
			C123.3,44.6,123.2,45,123.2,45.6z"/>
		<path class="st2" d="M128.3,42.6h2.2c0.2,0,0.5,0,0.7,0.1c0.2,0.1,0.4,0.2,0.7,0.4c0.2,0.1,0.3,0.3,0.5,0.6
			c0.1,0.2,0.2,0.5,0.2,0.9c0,0.5-0.2,0.9-0.5,1.2c-0.3,0.4-0.8,0.6-1.4,0.6h-1.4v2.4h-0.9V42.6z M129.3,45.4h1.4
			c0.3,0,0.6-0.1,0.8-0.3c0.2-0.2,0.2-0.4,0.2-0.7c0-0.2,0-0.4-0.1-0.5c-0.1-0.1-0.2-0.2-0.3-0.3c-0.2-0.1-0.4-0.2-0.7-0.2h-1.3
			V45.4z"/>
		<path class="st2" d="M134,42.6h3.9v0.9h-3v1.7h2.5V46H135v1.8h3v0.9H134V42.6z"/>
		<path class="st2" d="M139.4,42.6h2.4c0.5,0,0.9,0.1,1.2,0.4c0.4,0.3,0.6,0.7,0.6,1.3c0,0.8-0.4,1.4-1.2,1.7l1.4,2.7h-1.1l-1.3-2.6
			h-1.2v2.6h-0.9V42.6z M140.3,45.3h1.4c0.3,0,0.6-0.1,0.8-0.3c0.2-0.2,0.3-0.4,0.3-0.7c0-0.3-0.1-0.5-0.3-0.7
			c-0.2-0.1-0.4-0.2-0.7-0.2h-1.4V45.3z"/>
		<path class="st2" d="M146.5,43.4h-1.7v-0.8h4.3v0.8h-1.7v5.3h-0.9V43.4z"/>
		<path class="st2" d="M151.9,46.2l-1.8-3.6h1l1.3,2.7l1.3-2.7h1l-1.8,3.6v2.5h-0.9V46.2z"/>
		<path class="st2" d="M160,47.8c0.8,0,1.2-0.3,1.2-0.8c0-0.5-0.3-0.7-0.8-0.8c-0.2,0-0.5-0.1-0.8-0.1c-0.5-0.1-0.9-0.3-1.2-0.6
			c-0.3-0.3-0.4-0.7-0.4-1.1c0-0.5,0.2-1,0.5-1.3c0.3-0.3,0.8-0.5,1.5-0.5c0.8,0,1.4,0.2,2,0.6l-0.5,0.8c-0.5-0.3-1-0.5-1.5-0.5
			c-0.3,0-0.5,0.1-0.7,0.2c-0.2,0.1-0.3,0.4-0.3,0.7c0,0.2,0.1,0.3,0.2,0.5c0.1,0.1,0.4,0.2,0.7,0.3c0.2,0,0.4,0.1,0.7,0.1
			c0.6,0.1,1,0.3,1.3,0.6c0.3,0.3,0.4,0.7,0.4,1.1c0,1.2-0.7,1.8-2.1,1.8c-0.9,0-1.7-0.3-2.3-0.8l0.6-0.7
			C158.8,47.6,159.4,47.8,160,47.8z"/>
		<path class="st2" d="M163.7,42.6h3.9v0.9h-3v1.7h2.5V46h-2.5v1.8h3v0.9h-3.9V42.6z"/>
		<path class="st2" d="M172.5,47.3h-2.3l-0.5,1.4h-1l2.2-6.1h0.8l2.2,6.1h-1L172.5,47.3z M172.3,46.5l-0.9-2.7h0l-0.9,2.7H172.3z"/>
		<path class="st2" d="M175.4,42.6h2.4c0.5,0,0.9,0.1,1.2,0.4c0.4,0.3,0.6,0.7,0.6,1.3c0,0.8-0.4,1.4-1.2,1.7l1.4,2.7h-1.1l-1.3-2.6
			h-1.2v2.6h-0.9V42.6z M176.3,45.3h1.4c0.3,0,0.6-0.1,0.8-0.3c0.2-0.2,0.3-0.4,0.3-0.7c0-0.3-0.1-0.5-0.3-0.7
			c-0.2-0.1-0.4-0.2-0.7-0.2h-1.4V45.3z"/>
		<path class="st2" d="M185.3,47c-0.1,0.6-0.4,1-0.8,1.3c-0.4,0.3-0.8,0.5-1.4,0.5c-0.5,0-0.9-0.1-1.2-0.4c-0.3-0.2-0.6-0.5-0.7-0.7
			c0-0.1-0.1-0.2-0.1-0.3c0-0.1-0.1-0.2-0.1-0.3c0-0.2-0.1-0.7-0.1-1.4c0-0.7,0-1.2,0.1-1.4c0-0.2,0.1-0.4,0.2-0.6
			c0.1-0.3,0.4-0.5,0.7-0.8c0.3-0.2,0.7-0.3,1.2-0.3c0.6,0,1.1,0.2,1.4,0.5c0.4,0.3,0.6,0.8,0.7,1.3h-1c-0.1-0.2-0.2-0.5-0.4-0.6
			c-0.2-0.2-0.5-0.2-0.8-0.3c-0.2,0-0.4,0-0.6,0.1c-0.2,0.1-0.3,0.2-0.4,0.3c-0.1,0.1-0.2,0.3-0.2,0.5c0,0.2-0.1,0.6-0.1,1.2
			s0,1,0.1,1.2c0,0.2,0.1,0.4,0.2,0.5c0.1,0.1,0.2,0.2,0.4,0.3c0.2,0.1,0.3,0.1,0.6,0.1c0.5,0,0.9-0.3,1.2-0.8H185.3z"/>
		<path class="st2" d="M190.1,46h-2.4v2.7h-0.9v-6.1h0.9v2.6h2.4v-2.6h0.9v6.1h-0.9V46z"/>
	</g>
	<g>
		<path class="st2" d="M45.6,27.8h3.6v0.9c0,1.1-0.4,2-1,2.7c-0.7,0.7-1.5,1.1-2.6,1.1c-0.6,0-1.2-0.1-1.6-0.4
			c-0.5-0.2-0.8-0.5-1.1-0.9c-0.3-0.4-0.6-0.9-0.7-1.5c-0.1-0.6-0.2-1.8-0.2-3.5c0-1.7,0.1-2.9,0.2-3.6c0.1-0.6,0.3-1.1,0.7-1.5
			c0.3-0.4,0.7-0.7,1.1-0.9c0.5-0.2,1-0.4,1.6-0.4c0.9,0,1.6,0.3,2.2,0.7c0.6,0.5,1,1.1,1.2,1.8h2.8c-0.3-1.5-1-2.7-2-3.7
			c-1.1-1-2.5-1.5-4.2-1.5c-1.4,0-2.5,0.3-3.5,1c-0.9,0.6-1.6,1.4-2.1,2.2c-0.3,0.4-0.5,1-0.6,1.7c-0.1,0.7-0.2,2.1-0.2,4.1
			c0,2,0.1,3.4,0.2,4.1c0.1,0.4,0.1,0.7,0.2,0.9c0.1,0.2,0.2,0.5,0.4,0.8c0.4,0.8,1.1,1.5,2.1,2.2c0.9,0.6,2.1,1,3.5,1
			c1.8,0,3.3-0.6,4.5-1.8c1.2-1.2,1.8-2.7,1.8-4.4v-3.6h-6.3V27.8z"/>
		<path class="st2" d="M67.9,17.3L61.5,35h2.8l1.4-4.3c0.5,0.2,1.1,0.3,1.9,0.3c1.7,0,2.6-0.7,3.3-1.1c0.3-0.3,0.6-0.4,1-0.5
			l1.9,5.7h2.8l-6.4-17.7H67.9z M69.3,27.7c-0.6,0.4-0.9,0.6-1.7,0.6c-0.4,0-0.7-0.1-1-0.2l2.4-7.2h0l1.9,5.8
			C70.2,27,69.7,27.4,69.3,27.7z"/>
		<polygon class="st2" points="90,17.3 87.3,17.3 87.3,35 98.6,35 98.6,32.5 90,32.5 		"/>
		<polygon class="st2" points="112.3,17.3 109.6,17.3 109.6,35 120.9,35 120.9,32.5 112.3,32.5 		"/>
		<polygon class="st2" points="131.9,35 143.2,35 143.2,32.5 134.6,32.5 134.6,27.3 142,27.3 142,24.9 134.6,24.9 134.6,19.9 
			143.2,19.9 143.2,17.3 131.9,17.3 		"/>
		<polygon class="st2" points="188.3,17.3 188.3,29.9 188.2,29.9 180.3,17.3 177.7,17.3 177.7,35 180.4,35 180.4,22.4 180.5,22.4 
			188.4,35 191,35 191,17.3 		"/>
		<path class="st2" d="M165.4,20.3c-0.4-0.8-1.1-1.5-2-2.2c-0.9-0.6-2.1-1-3.5-1c-1.4,0-2.5,0.3-3.5,1c-0.9,0.6-1.6,1.4-2.1,2.2
			c-0.3,0.4-0.5,1-0.6,1.7c-0.1,0.7-0.2,2.1-0.2,4.1c0,2,0.1,3.4,0.2,4.1c0.1,0.4,0.1,0.7,0.2,0.9c0.1,0.2,0.2,0.5,0.4,0.8
			c0.4,0.8,1.1,1.5,2.1,2.2c0.9,0.6,2.1,1,3.5,1c1.4,0,2.6-0.4,3.5-1c0.9-0.6,1.6-1.3,2-2.2c0.3-0.4,0.5-1,0.6-1.7
			c0.1-0.7,0.2-2.1,0.2-4.1c0-2.1-0.1-3.4-0.2-4.1C165.9,21.3,165.7,20.8,165.4,20.3z M156.5,22.6c0.1-0.6,0.3-1.1,0.7-1.5
			c0.3-0.4,0.7-0.7,1.1-0.9c0.5-0.2,1-0.4,1.6-0.4c0.6,0,1.2,0.1,1.7,0.4c0.4,0.2,0.8,0.5,1.1,0.9c0.3,0.4,0.6,0.9,0.7,1.5
			c0.1,0.3,0.1,0.7,0.1,1.2c-1.2,0.3-2,0.8-2.6,1.3c-0.8,0.6-1.4,1-2.6,1c-0.9,0-1.4-0.2-1.9-0.5C156.3,24.1,156.3,23.2,156.5,22.6z
			 M163.3,29.7c-0.1,0.6-0.4,1.1-0.7,1.5c-0.3,0.4-0.6,0.7-1.1,0.9c-0.5,0.3-1,0.4-1.7,0.4c-0.6,0-1.2-0.1-1.6-0.4
			c-0.5-0.2-0.8-0.5-1.1-0.9c-0.3-0.4-0.6-0.9-0.7-1.5c-0.1-0.3-0.1-0.7-0.1-1.2c0.5,0.1,1.1,0.2,1.8,0.2c2.1,0,3.3-0.8,4.2-1.5
			c0.4-0.3,0.7-0.5,1.1-0.7C163.5,28.1,163.4,29.1,163.3,29.7z"/>
	</g>
	<g>
		<path class="st2" d="M194.8,19.9c0-0.7,0.3-1.4,0.8-1.9c0.5-0.5,1.1-0.7,1.8-0.8c0.7,0,1.4,0.3,1.9,0.8c0.5,0.5,0.7,1.1,0.8,1.9
			c0,0.7-0.3,1.4-0.8,1.8c-0.5,0.5-1.1,0.8-1.9,0.8c-0.7,0-1.4-0.3-1.8-0.8C195,21.3,194.8,20.7,194.8,19.9z M195.3,19.9
			c0,0.6,0.2,1.1,0.6,1.5c0.4,0.4,0.9,0.6,1.5,0.6c0.6,0,1.1-0.2,1.5-0.6c0.4-0.4,0.6-0.9,0.6-1.5c0-0.6-0.2-1.1-0.6-1.5
			c-0.4-0.4-0.9-0.6-1.5-0.6c-0.6,0-1.1,0.2-1.5,0.6C195.5,18.8,195.3,19.3,195.3,19.9z M196.4,18.3h1.2c0.7,0,1,0.3,1,0.9
			c0,0.3-0.1,0.5-0.2,0.7c-0.2,0.1-0.3,0.2-0.6,0.2l0.9,1.3h-0.6l-0.9-1.2h-0.3v1.2h-0.5V18.3z M196.9,19.7h0.4c0.2,0,0.4,0,0.6-0.1
			c0.2-0.1,0.2-0.2,0.2-0.4c0-0.2-0.1-0.3-0.2-0.4c-0.1-0.1-0.3-0.1-0.5-0.1h-0.5V19.7z"/>
	</g>
</g>
</svg>
